# xmcd
#
# Track frame offsets:
#	150
#	17230
#	34647
#	50782
#	69021
#	84571
#	101826
#	120199
#	133201
#	150283
#	161330
#	173002
#
# Disc length: 2502 seconds
#
# Revision: 0
# Processed by: cddbd v1.5.2PL0 Copyright (c) Steve Scherf et al.
# Submitted via: audiograbber 1.83.01
#
DISCID=8b09c40c
DTITLE=Ash Grunwald -  Troubles Door
DYEAR=2012
DGENRE=Blues
TTITLE0=01 The Demon in Me
TTITLE1=02 Shake
TTITLE2=03 Longtime
TTITLE3=04 Trouble's Door
TTITLE4=05 180
TTITLE5=06 Sail
TTITLE6=07 Nervous
TTITLE7=08 Ramblin' Man
TTITLE8=09 When You Need 'Em
TTITLE9=10 Telling Lies
TTITLE10=11 Outta Time
TTITLE11=12 What You Had
EXTD=
EXTT0=
EXTT1=
EXTT2=
EXTT3=
EXTT4=
EXTT5=
EXTT6=
EXTT7=
EXTT8=
EXTT9=
EXTT10=
EXTT11=
PLAYORDER=
